<svg xmlns="http://www.w3.org/2000/svg" xmlns:xlink="http://www.w3.org/1999/xlink" width="400" zoomAndPan="magnify" viewBox="0 0 300 299.999988" height="400" preserveAspectRatio="xMidYMid meet" version="1.0"><rect x="-30" width="360" fill="#ffffff" y="-29.999999" height="359.999986" fill-opacity="1"/><rect x="-30" width="360" fill="#ffffff" y="-29.999999" height="359.999986" fill-opacity="1"/><path fill="#ffffff" d="M 0 150 L 0 0 L 150 0 L 150 150 Z M 0 150 " fill-opacity="1" fill-rule="nonzero"/><path fill="#ffa500" d="M 0 150 L 0 112.5 L 37.5 150 Z M 0 150 " fill-opacity="1" fill-rule="nonzero"/><path fill="#ff8c00" d="M 0 112.5 L 0 75 L 37.5 75 Z M 0 112.5 " fill-opacity="1" fill-rule="nonzero"/><path fill="#ffa500" d="M 0 75 L 0 37.5 L 37.5 75 Z M 0 75 " fill-opacity="1" fill-rule="nonzero"/><path fill="#ff8c00" d="M 0 37.5 L 0 0 L 37.5 0 Z M 0 37.5 " fill-opacity="1" fill-rule="nonzero"/><path fill="#ff8c00" d="M 37.5 150 L 37.5 112.5 L 75 112.5 Z M 37.5 150 " fill-opacity="1" fill-rule="nonzero"/><path fill="#ffa500" d="M 37.5 112.5 L 37.5 75 L 75 112.5 Z M 37.5 112.5 " fill-opacity="1" fill-rule="nonzero"/><path fill="#ff8c00" d="M 37.5 75 L 37.5 37.5 L 75 37.5 Z M 37.5 75 " fill-opacity="1" fill-rule="nonzero"/><path fill="#ffa500" d="M 37.5 37.5 L 37.5 0 L 75 37.5 Z M 37.5 37.5 " fill-opacity="1" fill-rule="nonzero"/><path fill="#ffa500" d="M 75 150 L 75 112.5 L 112.5 150 Z M 75 150 " fill-opacity="1" fill-rule="nonzero"/><path fill="#ff8c00" d="M 75 112.5 L 75 75 L 112.5 75 Z M 75 112.5 " fill-opacity="1" fill-rule="nonzero"/><path fill="#ffa500" d="M 75 75 L 75 37.5 L 112.5 75 Z M 75 75 " fill-opacity="1" fill-rule="nonzero"/><path fill="#ff8c00" d="M 75 37.5 L 75 0 L 112.5 0 Z M 75 37.5 " fill-opacity="1" fill-rule="nonzero"/><path fill="#ff8c00" d="M 112.5 150 L 112.5 112.5 L 150 112.5 Z M 112.5 150 " fill-opacity="1" fill-rule="nonzero"/><path fill="#ffa500" d="M 112.5 112.5 L 112.5 75 L 150 112.5 Z M 112.5 112.5 " fill-opacity="1" fill-rule="nonzero"/><path fill="#ff8c00" d="M 112.5 75 L 112.5 37.5 L 150 37.5 Z M 112.5 75 " fill-opacity="1" fill-rule="nonzero"/><path fill="#ffa500" d="M 112.5 37.5 L 112.5 0 L 150 37.5 Z M 112.5 37.5 " fill-opacity="1" fill-rule="nonzero"/><path fill="#ffffff" d="M 0 300 L 0 150 L 150 150 L 150 300 Z M 0 300 " fill-opacity="1" fill-rule="nonzero"/><path fill="#ffa500" d="M 0 300 L 0 262.5 L 37.5 300 Z M 0 300 " fill-opacity="1" fill-rule="nonzero"/><path fill="#ff8c00" d="M 0 262.5 L 0 225 L 37.5 225 Z M 0 262.5 " fill-opacity="1" fill-rule="nonzero"/><path fill="#ffa500" d="M 0 225 L 0 187.5 L 37.5 225 Z M 0 225 " fill-opacity="1" fill-rule="nonzero"/><path fill="#ff8c00" d="M 0 187.5 L 0 150 L 37.5 150 Z M 0 187.5 " fill-opacity="1" fill-rule="nonzero"/><path fill="#ff8c00" d="M 37.5 300 L 37.5 262.5 L 75 262.5 Z M 37.5 300 " fill-opacity="1" fill-rule="nonzero"/><path fill="#ffa500" d="M 37.5 262.5 L 37.5 225 L 75 262.5 Z M 37.5 262.5 " fill-opacity="1" fill-rule="nonzero"/><path fill="#ff8c00" d="M 37.5 225 L 37.5 187.5 L 75 187.5 Z M 37.5 225 " fill-opacity="1" fill-rule="nonzero"/><path fill="#ffa500" d="M 37.5 187.5 L 37.5 150 L 75 187.5 Z M 37.5 187.5 " fill-opacity="1" fill-rule="nonzero"/><path fill="#ffa500" d="M 75 300 L 75 262.5 L 112.5 300 Z M 75 300 " fill-opacity="1" fill-rule="nonzero"/><path fill="#ff8c00" d="M 75 262.5 L 75 225 L 112.5 225 Z M 75 262.5 " fill-opacity="1" fill-rule="nonzero"/><path fill="#ffa500" d="M 75 225 L 75 187.5 L 112.5 225 Z M 75 225 " fill-opacity="1" fill-rule="nonzero"/><path fill="#ff8c00" d="M 75 187.5 L 75 150 L 112.5 150 Z M 75 187.5 " fill-opacity="1" fill-rule="nonzero"/><path fill="#ff8c00" d="M 112.5 300 L 112.5 262.5 L 150 262.5 Z M 112.5 300 " fill-opacity="1" fill-rule="nonzero"/><path fill="#ffa500" d="M 112.5 262.5 L 112.5 225 L 150 262.5 Z M 112.5 262.5 " fill-opacity="1" fill-rule="nonzero"/><path fill="#ff8c00" d="M 112.5 225 L 112.5 187.5 L 150 187.5 Z M 112.5 225 " fill-opacity="1" fill-rule="nonzero"/><path fill="#ffa500" d="M 112.5 187.5 L 112.5 150 L 150 187.5 Z M 112.5 187.5 " fill-opacity="1" fill-rule="nonzero"/><path fill="#ffffff" d="M 300 150 L 300 0 L 150 0 L 150 150 Z M 300 150 " fill-opacity="1" fill-rule="nonzero"/><path fill="#ffa500" d="M 300 150 L 300 112.5 L 262.5 150 Z M 300 150 " fill-opacity="1" fill-rule="nonzero"/><path fill="#ff8c00" d="M 300 112.5 L 300 75 L 262.5 75 Z M 300 112.5 " fill-opacity="1" fill-rule="nonzero"/><path fill="#ffa500" d="M 300 75 L 300 37.5 L 262.5 75 Z M 300 75 " fill-opacity="1" fill-rule="nonzero"/><path fill="#ff8c00" d="M 300 37.5 L 300 0 L 262.5 0 Z M 300 37.5 " fill-opacity="1" fill-rule="nonzero"/><path fill="#ff8c00" d="M 262.5 150 L 262.5 112.5 L 225 112.5 Z M 262.5 150 " fill-opacity="1" fill-rule="nonzero"/><path fill="#ffa500" d="M 262.5 112.5 L 262.5 75 L 225 112.5 Z M 262.5 112.5 " fill-opacity="1" fill-rule="nonzero"/><path fill="#ff8c00" d="M 262.5 75 L 262.5 37.5 L 225 37.5 Z M 262.5 75 " fill-opacity="1" fill-rule="nonzero"/><path fill="#ffa500" d="M 262.5 37.5 L 262.5 0 L 225 37.5 Z M 262.5 37.5 " fill-opacity="1" fill-rule="nonzero"/><path fill="#ffa500" d="M 225 150 L 225 112.5 L 187.5 150 Z M 225 150 " fill-opacity="1" fill-rule="nonzero"/><path fill="#ff8c00" d="M 225 112.5 L 225 75 L 187.5 75 Z M 225 112.5 " fill-opacity="1" fill-rule="nonzero"/><path fill="#ffa500" d="M 225 75 L 225 37.5 L 187.5 75 Z M 225 75 " fill-opacity="1" fill-rule="nonzero"/><path fill="#ff8c00" d="M 225 37.5 L 225 0 L 187.5 0 Z M 225 37.5 " fill-opacity="1" fill-rule="nonzero"/><path fill="#ff8c00" d="M 187.5 150 L 187.5 112.5 L 150 112.5 Z M 187.5 150 " fill-opacity="1" fill-rule="nonzero"/><path fill="#ffa500" d="M 187.5 112.5 L 187.5 75 L 150 112.5 Z M 187.5 112.5 " fill-opacity="1" fill-rule="nonzero"/><path fill="#ff8c00" d="M 187.5 75 L 187.5 37.5 L 150 37.5 Z M 187.5 75 " fill-opacity="1" fill-rule="nonzero"/><path fill="#ffa500" d="M 187.5 37.5 L 187.5 0 L 150 37.5 Z M 187.5 37.5 " fill-opacity="1" fill-rule="nonzero"/><path fill="#ffffff" d="M 300 300 L 300 150 L 150 150 L 150 300 Z M 300 300 " fill-opacity="1" fill-rule="nonzero"/><path fill="#ffa500" d="M 300 300 L 300 262.5 L 262.5 300 Z M 300 300 " fill-opacity="1" fill-rule="nonzero"/><path fill="#ff8c00" d="M 300 262.5 L 300 225 L 262.5 225 Z M 300 262.5 " fill-opacity="1" fill-rule="nonzero"/><path fill="#ffa500" d="M 300 225 L 300 187.5 L 262.5 225 Z M 300 225 " fill-opacity="1" fill-rule="nonzero"/><path fill="#ff8c00" d="M 300 187.5 L 300 150 L 262.5 150 Z M 300 187.5 " fill-opacity="1" fill-rule="nonzero"/><path fill="#ff8c00" d="M 262.5 300 L 262.5 262.5 L 225 262.5 Z M 262.5 300 " fill-opacity="1" fill-rule="nonzero"/><path fill="#ffa500" d="M 262.5 262.5 L 262.5 225 L 225 262.5 Z M 262.5 262.5 " fill-opacity="1" fill-rule="nonzero"/><path fill="#ff8c00" d="M 262.5 225 L 262.5 187.5 L 225 187.5 Z M 262.5 225 " fill-opacity="1" fill-rule="nonzero"/><path fill="#ffa500" d="M 262.5 187.5 L 262.5 150 L 225 187.5 Z M 262.5 187.5 " fill-opacity="1" fill-rule="nonzero"/><path fill="#ffa500" d="M 225 300 L 225 262.5 L 187.5 300 Z M 225 300 " fill-opacity="1" fill-rule="nonzero"/><path fill="#ff8c00" d="M 225 262.5 L 225 225 L 187.5 225 Z M 225 262.5 " fill-opacity="1" fill-rule="nonzero"/><path fill="#ffa500" d="M 225 225 L 225 187.5 L 187.5 225 Z M 225 225 " fill-opacity="1" fill-rule="nonzero"/><path fill="#ff8c00" d="M 225 187.5 L 225 150 L 187.5 150 Z M 225 187.5 " fill-opacity="1" fill-rule="nonzero"/><path fill="#ff8c00" d="M 187.5 300 L 187.5 262.5 L 150 262.5 Z M 187.5 300 " fill-opacity="1" fill-rule="nonzero"/><path fill="#ffa500" d="M 187.5 262.5 L 187.5 225 L 150 262.5 Z M 187.5 262.5 " fill-opacity="1" fill-rule="nonzero"/><path fill="#ff8c00" d="M 187.5 225 L 187.5 187.5 L 150 187.5 Z M 187.5 225 " fill-opacity="1" fill-rule="nonzero"/><path fill="#ffa500" d="M 187.5 187.5 L 187.5 150 L 150 187.5 Z M 187.5 187.5 " fill-opacity="1" fill-rule="nonzero"/></svg>